<?xml version="1.0" encoding="utf-8"?>
<!-- Generated by IcoMoon.io -->
<!DOCTYPE svg PUBLIC "-//W3C//DTD SVG 1.1//EN" "http://www.w3.org/Graphics/SVG/1.1/DTD/svg11.dtd">
<svg version="1.1" xmlns="http://www.w3.org/2000/svg" xmlns:xlink="http://www.w3.org/1999/xlink" width="200" height="200" viewBox="0 0 200 200">
	<path d="M100 0c-55.229 0-100 44.771-100 100s44.771 100 100 100 100-44.771 100-100-44.771-100-100-100zM159.386 159.386c-7.718 7.718-16.702 13.776-26.701 18.005-2.54 1.074-5.12 2.017-7.734 2.83v-14.987c0-7.878-2.702-13.672-8.105-17.383 3.386-0.325 6.494-0.781 9.326-1.367s5.827-1.432 8.984-2.539 5.989-2.425 8.496-3.955 4.915-3.516 7.227-5.957 4.248-5.208 5.811-8.301 2.8-6.804 3.711-11.133 1.367-9.098 1.367-14.307c0-10.091-3.288-18.685-9.863-25.781 2.995-7.813 2.669-16.309-0.977-25.488l-2.441-0.293c-1.693-0.195-4.736 0.521-9.131 2.148s-9.326 4.297-14.795 8.008c-7.747-2.148-15.788-3.223-24.121-3.223-8.398 0-16.406 1.074-24.023 3.223-3.45-2.344-6.722-4.28-9.814-5.811-3.093-1.53-5.566-2.571-7.422-3.125s-3.581-0.895-5.176-1.025-2.62-0.163-3.076-0.098-0.781 0.13-0.977 0.195c-3.646 9.245-3.971 17.741-0.977 25.488-6.575 7.096-9.863 15.69-9.863 25.781 0 5.208 0.456 9.977 1.367 14.307s2.148 8.040 3.711 11.133 3.499 5.859 5.811 8.301 4.72 4.427 7.227 5.957 5.339 2.848 8.496 3.955 6.152 1.953 8.984 2.539 5.941 1.042 9.326 1.367c-5.339 3.646-8.008 9.44-8.008 17.383v15.279c-2.949-0.878-5.855-1.915-8.711-3.123-9.999-4.229-18.982-10.287-26.7-18.005-7.718-7.718-13.776-16.702-18.005-26.701-4.375-10.343-6.593-21.34-6.593-32.685s2.218-22.342 6.593-32.686c4.229-9.999 10.287-18.982 18.005-26.7s16.702-13.776 26.7-18.005c10.344-4.375 21.341-6.593 32.686-6.593s22.342 2.218 32.686 6.593c9.999 4.229 18.982 10.287 26.701 18.005 7.718 7.718 13.776 16.702 18.005 26.7 4.375 10.344 6.593 21.341 6.593 32.686s-2.218 22.342-6.593 32.686c-4.229 9.999-10.287 18.982-18.005 26.7z" fill="#ffffff" />
</svg>
