<?xml version="1.0" encoding="utf-8"?>
<!-- Generated by IcoMoon.io -->
<!DOCTYPE svg PUBLIC "-//W3C//DTD SVG 1.1//EN" "http://www.w3.org/Graphics/SVG/1.1/DTD/svg11.dtd">
<svg version="1.1" xmlns="http://www.w3.org/2000/svg" xmlns:xlink="http://www.w3.org/1999/xlink" width="200" height="200" viewBox="0 0 200 200">
	<path d="M100 162.479c-3.741 0-7.482-1.937-11.356-5.811-1.525-1.525-1.525-3.999 0-5.525 1.525-1.525 3.999-1.525 5.525 0 2.384 2.385 4.291 3.544 5.831 3.544 1.539 0 3.447-1.159 5.832-3.543 1.526-1.525 3.998-1.525 5.525 0 1.525 1.525 1.525 3.999 0 5.525-3.874 3.873-7.615 5.81-11.356 5.81zM0 102.635c0 9.745 0.833 18.579 2.5 26.5 1.667 7.922 4.011 14.793 7.031 20.612 3.021 5.819 6.84 10.919 11.458 15.301 4.618 4.382 9.635 7.992 15.052 10.832 5.417 2.839 11.614 5.136 18.594 6.888 6.979 1.753 14.080 2.98 21.302 3.681 7.222 0.701 15.174 1.052 23.854 1.052 8.68 0 16.649-0.35 23.906-1.051 7.257-0.701 14.375-1.928 21.354-3.681 6.979-1.753 13.195-4.049 18.646-6.888 5.451-2.839 10.504-6.45 15.156-10.832 4.653-4.382 8.49-9.482 11.511-15.301 3.021-5.819 5.383-12.69 7.084-20.612 1.701-7.922 2.552-16.755 2.552-26.5 0-17.457-5.417-32.495-16.25-45.114 0.625-1.683 1.163-3.611 1.614-5.784 0.451-2.173 0.885-5.241 1.302-9.202 0.418-3.961 0.261-8.536-0.468-13.723-0.729-5.188-2.1-10.481-4.114-15.879l-1.563-0.316c-1.041-0.21-2.743-0.14-5.104 0.211-2.361 0.35-5.121 0.981-8.281 1.893-3.159 0.911-7.239 2.716-12.24 5.416-5 2.699-10.277 6.117-15.833 10.253-9.445-2.875-22.465-5.882-39.062-5.882-16.597 0-29.653 3.007-39.166 5.882-5.556-4.137-10.851-7.537-15.886-10.201-5.035-2.664-9.063-4.487-12.084-5.468-3.021-0.981-5.816-1.613-8.386-1.893-2.57-0.28-4.219-0.368-4.948-0.263-0.729 0.105-1.267 0.228-1.614 0.368-2.014 5.398-3.403 10.691-4.167 15.88-0.764 5.188-0.937 9.745-0.521 13.67 0.417 3.926 0.868 7.011 1.354 9.254 0.486 2.243 1.042 4.171 1.667 5.784-10.833 12.549-16.25 27.586-16.25 45.113zM26.667 124.884c0-11.332 4.166-21.609 12.5-30.831 2.5-2.814 5.4-4.944 8.698-6.389 3.299-1.446 7.048-2.267 11.25-2.462 4.202-0.195 8.212-0.156 12.031 0.117 3.82 0.274 8.542 0.645 14.167 1.114 5.625 0.47 10.486 0.704 14.583 0.704 4.097 0 8.959-0.234 14.583-0.704 5.626-0.469 10.348-0.84 14.167-1.114 3.82-0.273 7.83-0.313 12.032-0.117 4.202 0.196 7.969 1.016 11.302 2.462 3.333 1.445 6.25 3.575 8.75 6.389 8.333 9.222 12.5 19.499 12.5 30.831 0 6.643-0.694 12.563-2.084 17.761-1.389 5.198-3.143 9.554-5.261 13.071-2.118 3.517-5.087 6.488-8.906 8.91-3.82 2.423-7.518 4.299-11.094 5.627-3.577 1.328-8.195 2.364-13.854 3.107-5.661 0.741-10.729 1.192-15.209 1.348-4.479 0.156-10.121 0.234-16.927 0.234-6.805 0-12.43-0.079-16.875-0.234-4.445-0.156-9.496-0.606-15.156-1.348-5.66-0.743-10.278-1.778-13.854-3.107-3.576-1.329-7.274-3.204-11.094-5.627-3.82-2.423-6.788-5.393-8.906-8.91-2.118-3.517-3.872-7.873-5.261-13.071-1.389-5.197-2.083-11.118-2.083-17.761zM50 118.751c0-10.355 5.596-18.75 12.5-18.75s12.5 8.395 12.5 18.75c0 10.355-5.596 18.75-12.5 18.75-6.904 0-12.5-8.395-12.5-18.75zM125 118.751c0-10.355 5.596-18.75 12.5-18.75s12.5 8.395 12.5 18.75c0 10.355-5.596 18.75-12.5 18.75-6.904 0-12.5-8.395-12.5-18.75z" fill="#ffffff" />
</svg>
