<?xml version="1.0" encoding="utf-8"?>
<!-- Generated by IcoMoon.io -->
<!DOCTYPE svg PUBLIC "-//W3C//DTD SVG 1.1//EN" "http://www.w3.org/Graphics/SVG/1.1/DTD/svg11.dtd">
<svg version="1.1" xmlns="http://www.w3.org/2000/svg" xmlns:xlink="http://www.w3.org/1999/xlink" width="200" height="200" viewBox="0 0 200 200">
	<path d="M152 100c0 28.72-23.29 52-52 52-28.72 0-52-23.28-52-52 0-3.42 0.34-6.76 0.98-10h-34.98v69.12c0 14.84 12.020 26.88 26.88 26.88h118.24c14.84 0 26.88-12.030 26.88-26.88v-69.12h-34.97c0.63 3.24 0.97 6.58 0.97 10zM159.12 14h-118.24c-14.85 0-26.88 12.040-26.88 26.88v29.12h43.54c9.41-13.3 24.92-22 42.46-22s33.050 8.7 42.46 22h43.54v-29.12c0-14.84-12.040-26.88-26.88-26.88zM172.27 47.2c0 2.65-2.16 4.8-4.8 4.8h-14.39c-2.64 0-4.8-2.16-4.8-4.8v-14.4c0-2.65 2.17-4.8 4.8-4.8h14.39c2.65 0 4.8 2.16 4.8 4.8v14.4zM132 100c0-17.68-14.33-32-32-32s-32 14.32-32 32 14.33 32 32 32 32-14.32 32-32z" fill="#ffffff" />
</svg>
