<?xml version="1.0" encoding="utf-8"?>
<!-- Generated by IcoMoon.io -->
<!DOCTYPE svg PUBLIC "-//W3C//DTD SVG 1.1//EN" "http://www.w3.org/Graphics/SVG/1.1/DTD/svg11.dtd">
<svg version="1.1" xmlns="http://www.w3.org/2000/svg" xmlns:xlink="http://www.w3.org/1999/xlink" width="200" height="200" viewBox="0 0 200 200">
	<path d="M50.76 30.5c0 10.63-7.85 19.24-20.76 19.24-12.15 0-20-8.61-20-19.24 0-10.88 8.11-19.24 20.51-19.24s20 8.36 20.25 19.24zM11.020 188.74v-123.8h38.48v123.8h-38.48zM72.53 104.43c0-15.44-0.51-28.35-1.020-39.49h33.42l1.78 17.22h0.76c5.060-8.11 17.47-20 38.23-20 25.31 0 44.3 16.96 44.3 53.42v73.17h-38.48v-68.61c0-15.95-5.58-26.84-19.5-26.84-10.63 0-16.95 7.34-19.74 14.43-1.020 2.53-1.27 6.070-1.27 9.62v71.4h-38.48v-84.32z" fill="#ffffff" />
</svg>
