<?xml version="1.0" encoding="utf-8"?>
<!-- Generated by IcoMoon.io -->
<!DOCTYPE svg PUBLIC "-//W3C//DTD SVG 1.1//EN" "http://www.w3.org/Graphics/SVG/1.1/DTD/svg11.dtd">
<svg version="1.1" xmlns="http://www.w3.org/2000/svg" xmlns:xlink="http://www.w3.org/1999/xlink" width="200" height="200" viewBox="0 0 200 200">
	<path d="M15.94 52.86c4.88 2.63 72.49 38.94 75.010 40.29 2.51 1.35 5.77 2 9.050 2 3.29 0 6.55-0.65 9.060-2.010 2.52-1.35 70.12-37.66 75-40.29 4.89-2.62 9.51-10.85 0.54-10.85h-169.19c-8.97 0-4.36 8.23 0.53 10.86zM186.13 72.86c-5.55 2.9-73.67 38.51-77.070 40.29s-5.77 2.010-9.060 2.010c-3.28 0-5.65-0.23-9.050-2.010s-71.53-37.4-77.070-40.29c-3.91-2.040-3.88 0.35-3.88 2.19 0 1.84 0 73.35 0 73.35 0 4.2 5.59 9.6 9.92 9.6h160.17c4.34 0 9.91-5.4 9.91-9.59 0 0 0-71.51 0-73.35 0-1.85 0.040-4.24-3.87-2.2z" fill="#ffffff" />
</svg>
