<?xml version="1.0" encoding="utf-8"?>
<!-- Generated by IcoMoon.io -->
<!DOCTYPE svg PUBLIC "-//W3C//DTD SVG 1.1//EN" "http://www.w3.org/Graphics/SVG/1.1/DTD/svg11.dtd">
<svg version="1.1" xmlns="http://www.w3.org/2000/svg" xmlns:xlink="http://www.w3.org/1999/xlink" width="200" height="200" viewBox="0 0 200 200">
	<path d="M197.144 1c-1.037-0.669-2.219-1-3.394-1-1.206 0-2.419 0.344-3.469 1.050l-187.5 125c-1.931 1.281-2.994 3.537-2.744 5.85 0.237 2.306 1.738 4.3 3.894 5.15l48.9 19.569 22.994 40.237c1.1 1.931 3.144 3.125 5.356 3.15 0.025 0 0.044 0 0.069 0 2.194 0 4.231-1.162 5.356-3.038l12.981-21.644 60.594 24.231c0.744 0.3 1.525 0.444 2.319 0.444 1.063 0 2.113-0.269 3.063-0.806 1.65-0.925 2.781-2.55 3.1-4.419l31.25-187.5c0.406-2.456-0.681-4.919-2.769-6.275zM19.6 129.856l144.844-96.569-105.313 112.731c-0.556-0.331-1.050-0.769-1.663-1.013l-37.869-15.15zM63.681 150.412c-0.013-0.025-0.031-0.037-0.044-0.063l118.394-126.719-100.931 157.262-17.419-30.481zM157.606 185.056l-53.381-21.35c-1.269-0.5-2.588-0.669-3.894-0.744l82.2-127.425-24.925 149.519z" fill="#ffffff" />
</svg>
