<?xml version="1.0" encoding="utf-8"?>
<!-- Generated by IcoMoon.io -->
<!DOCTYPE svg PUBLIC "-//W3C//DTD SVG 1.1//EN" "http://www.w3.org/Graphics/SVG/1.1/DTD/svg11.dtd">
<svg version="1.1" xmlns="http://www.w3.org/2000/svg" xmlns:xlink="http://www.w3.org/1999/xlink" width="200" height="200" viewBox="0 0 200 200">
	<path d="M192 42.93c-6.78 3.010-14.050 5.030-21.69 5.95 7.8-4.67 13.79-12.070 16.6-20.88-7.29 4.32-15.37 7.47-23.96 9.16-6.89-7.34-16.7-11.92-27.56-11.92-20.85 0-37.75 16.9-37.75 37.74 0 2.96 0.33 5.84 0.98 8.6-31.37-1.57-59.19-16.6-77.8-39.44-3.26 5.57-5.13 12.060-5.13 18.98 0 13.1 6.67 24.65 16.8 31.42-6.19-0.2-12.010-1.89-17.1-4.72 0 0.16 0 0.31 0 0.47 0 18.29 13.020 33.54 30.28 37.020-3.16 0.86-6.5 1.32-9.95 1.32-2.43 0-4.79-0.23-7.1-0.67 4.8 15 18.75 25.91 35.26 26.21-12.92 10.13-29.19 16.16-46.88 16.16-3.050 0-6.050-0.18-9-0.53 16.7 10.71 36.54 16.96 57.87 16.96 69.43 0 107.4-57.52 107.4-107.41 0-1.63-0.030-3.26-0.11-4.88 7.38-5.32 13.77-11.97 18.84-19.54z" fill="#ffffff" />
</svg>
